<svg id="visual" viewBox="0 0 900 600" width="900" height="600" xmlns="http://www.w3.org/2000/svg" xmlns:xlink="http://www.w3.org/1999/xlink" version="1.1"><rect x="0" y="0" width="900" height="600" fill="#005C91"></rect><path d="M0 11L4.8 19.8C9.7 28.7 19.3 46.3 29 48.5C38.7 50.7 48.3 37.3 58 44C67.7 50.7 77.3 77.3 87 87.8C96.7 98.3 106.3 92.7 116 82.5C125.7 72.3 135.3 57.7 145 44.5C154.7 31.3 164.3 19.7 174 29.7C183.7 39.7 193.3 71.3 203 77.5C212.7 83.7 222.3 64.3 232 47.5C241.7 30.7 251.3 16.3 261 16.3C270.7 16.3 280.3 30.7 290 47.3C299.7 64 309.3 83 319 92.3C328.7 101.7 338.3 101.3 348 88.7C357.7 76 367.3 51 377 50.7C386.7 50.3 396.3 74.7 406 87.7C415.7 100.7 425.3 102.3 435.2 99.2C445 96 455 88 464.8 74.2C474.7 60.3 484.3 40.7 494 44.2C503.7 47.7 513.3 74.3 523 74.2C532.7 74 542.3 47 552 38.7C561.7 30.3 571.3 40.7 581 48.2C590.7 55.7 600.3 60.3 610 52.8C619.7 45.3 629.3 25.7 639 27.2C648.7 28.7 658.3 51.3 668 58.7C677.7 66 687.3 58 697 54.3C706.7 50.7 716.3 51.3 726 62C735.7 72.7 745.3 93.3 755 94.7C764.7 96 774.3 78 784 72.5C793.7 67 803.3 74 813 70.3C822.7 66.7 832.3 52.3 842 40.7C851.7 29 861.3 20 871 17.7C880.7 15.3 890.3 19.7 895.2 21.8L900 24L900 0L895.2 0C890.3 0 880.7 0 871 0C861.3 0 851.7 0 842 0C832.3 0 822.7 0 813 0C803.3 0 793.7 0 784 0C774.3 0 764.7 0 755 0C745.3 0 735.7 0 726 0C716.3 0 706.7 0 697 0C687.3 0 677.7 0 668 0C658.3 0 648.7 0 639 0C629.3 0 619.7 0 610 0C600.3 0 590.7 0 581 0C571.3 0 561.7 0 552 0C542.3 0 532.7 0 523 0C513.3 0 503.7 0 494 0C484.3 0 474.7 0 464.8 0C455 0 445 0 435.2 0C425.3 0 415.7 0 406 0C396.3 0 386.7 0 377 0C367.3 0 357.7 0 348 0C338.3 0 328.7 0 319 0C309.3 0 299.7 0 290 0C280.3 0 270.7 0 261 0C251.3 0 241.7 0 232 0C222.3 0 212.7 0 203 0C193.3 0 183.7 0 174 0C164.3 0 154.7 0 145 0C135.3 0 125.7 0 116 0C106.3 0 96.7 0 87 0C77.3 0 67.7 0 58 0C48.3 0 38.7 0 29 0C19.3 0 9.7 0 4.8 0L0 0Z" fill="#FFCD17" stroke-linecap="round" stroke-linejoin="miter"></path></svg>