<svg id="visual" viewBox="0 0 900 600" width="900" height="600" xmlns="http://www.w3.org/2000/svg" xmlns:xlink="http://www.w3.org/1999/xlink" version="1.1"><rect x="0" y="0" width="900" height="600" fill="#111B27"></rect><path d="M0 181L21.5 183C43 185 86 189 128.8 180.8C171.7 172.7 214.3 152.3 257.2 145.3C300 138.3 343 144.7 385.8 149.2C428.7 153.7 471.3 156.3 514.2 161.5C557 166.7 600 174.3 642.8 164.3C685.7 154.3 728.3 126.7 771.2 128.2C814 129.7 857 160.3 878.5 175.7L900 191L900 0L878.5 0C857 0 814 0 771.2 0C728.3 0 685.7 0 642.8 0C600 0 557 0 514.2 0C471.3 0 428.7 0 385.8 0C343 0 300 0 257.2 0C214.3 0 171.7 0 128.8 0C86 0 43 0 21.5 0L0 0Z" fill="#05090C" stroke-linecap="round" stroke-linejoin="miter"></path></svg>