<svg id="visual" viewBox="0 0 900 600" width="900" height="600" xmlns="http://www.w3.org/2000/svg" xmlns:xlink="http://www.w3.org/1999/xlink" version="1.1"><rect x="0" y="0" width="900" height="600" fill="#111B27"></rect><path d="M702 600L700.8 585.7C699.7 571.3 697.3 542.7 692.5 514.2C687.7 485.7 680.3 457.3 672.2 428.8C664 400.3 655 371.7 649.3 343C643.7 314.3 641.3 285.7 662.8 257C684.3 228.3 729.7 199.7 745.2 171.2C760.7 142.7 746.3 114.3 735.5 85.8C724.7 57.3 717.3 28.7 713.7 14.3L710 0L900 0L900 14.3C900 28.7 900 57.3 900 85.8C900 114.3 900 142.7 900 171.2C900 199.7 900 228.3 900 257C900 285.7 900 314.3 900 343C900 371.7 900 400.3 900 428.8C900 457.3 900 485.7 900 514.2C900 542.7 900 571.3 900 585.7L900 600Z" fill="#05090C" stroke-linecap="round" stroke-linejoin="miter"></path></svg>