<svg id="visual" viewBox="0 0 900 600" width="900" height="600" xmlns="http://www.w3.org/2000/svg" xmlns:xlink="http://www.w3.org/1999/xlink" version="1.1"><path d="M0 242L8.3 254.3C16.7 266.7 33.3 291.3 50 293C66.7 294.7 83.3 273.3 100 260.2C116.7 247 133.3 242 150 260.3C166.7 278.7 183.3 320.3 200 323.2C216.7 326 233.3 290 250 292.2C266.7 294.3 283.3 334.7 300 342.5C316.7 350.3 333.3 325.7 350 311.3C366.7 297 383.3 293 400 290.5C416.7 288 433.3 287 450 286C466.7 285 483.3 284 500 285C516.7 286 533.3 289 550 287.3C566.7 285.7 583.3 279.3 600 287.8C616.7 296.3 633.3 319.7 650 335C666.7 350.3 683.3 357.7 700 360C716.7 362.3 733.3 359.7 750 353.7C766.7 347.7 783.3 338.3 800 318.7C816.7 299 833.3 269 850 273.3C866.7 277.7 883.3 316.3 891.7 335.7L900 355" fill="none" stroke-linecap="round" stroke-linejoin="miter" stroke="#FFCD17" stroke-width="40"></path></svg>