<svg id="visual" viewBox="0 0 900 600" width="900" height="600" xmlns="http://www.w3.org/2000/svg" xmlns:xlink="http://www.w3.org/1999/xlink" version="1.1"><path d="M0 523L21.5 526.3C43 529.7 86 536.3 128.8 526.7C171.7 517 214.3 491 257.2 485.8C300 480.7 343 496.3 385.8 503.5C428.7 510.7 471.3 509.3 514.2 506C557 502.7 600 497.3 642.8 484C685.7 470.7 728.3 449.3 771.2 452.8C814 456.3 857 484.7 878.5 498.8L900 513L900 601L878.5 601C857 601 814 601 771.2 601C728.3 601 685.7 601 642.8 601C600 601 557 601 514.2 601C471.3 601 428.7 601 385.8 601C343 601 300 601 257.2 601C214.3 601 171.7 601 128.8 601C86 601 43 601 21.5 601L0 601Z" fill="#ffcd17" stroke-linecap="round" stroke-linejoin="miter"></path></svg>