<svg id="visual" viewBox="0 0 900 600" width="900" height="600" xmlns="http://www.w3.org/2000/svg" xmlns:xlink="http://www.w3.org/1999/xlink" version="1.1"><path d="M0 151L82 151L82 169L164 169L164 175L245 175L245 187L327 187L327 79L409 79L409 199L491 199L491 145L573 145L573 109L655 109L655 187L736 187L736 187L818 187L818 145L900 145L900 205L900 0L900 0L818 0L818 0L736 0L736 0L655 0L655 0L573 0L573 0L491 0L491 0L409 0L409 0L327 0L327 0L245 0L245 0L164 0L164 0L82 0L82 0L0 0Z" fill="#111b27"></path><path d="M0 493L82 493L82 313L164 313L164 319L245 319L245 421L327 421L327 307L409 307L409 481L491 481L491 391L573 391L573 307L655 307L655 499L736 499L736 319L818 319L818 439L900 439L900 409L900 203L900 143L818 143L818 185L736 185L736 185L655 185L655 107L573 107L573 143L491 143L491 197L409 197L409 77L327 77L327 185L245 185L245 173L164 173L164 167L82 167L82 149L0 149Z" fill="#05090c"></path><path d="M0 601L82 601L82 601L164 601L164 601L245 601L245 601L327 601L327 601L409 601L409 601L491 601L491 601L573 601L573 601L655 601L655 601L736 601L736 601L818 601L818 601L900 601L900 601L900 407L900 437L818 437L818 317L736 317L736 497L655 497L655 305L573 305L573 389L491 389L491 479L409 479L409 305L327 305L327 419L245 419L245 317L164 317L164 311L82 311L82 491L0 491Z" fill="#111b27"></path></svg>