<svg id="visual" viewBox="0 0 900 600" width="900" height="600" xmlns="http://www.w3.org/2000/svg" xmlns:xlink="http://www.w3.org/1999/xlink" version="1.1"><rect x="0" y="0" width="900" height="600" fill="#005C91"></rect><defs><linearGradient id="grad1_0" x1="33.3%" y1="100%" x2="100%" y2="0%"><stop offset="20%" stop-color="#005c91" stop-opacity="1"></stop><stop offset="80%" stop-color="#005c91" stop-opacity="1"></stop></linearGradient></defs><defs><linearGradient id="grad2_0" x1="0%" y1="100%" x2="66.7%" y2="0%"><stop offset="20%" stop-color="#005c91" stop-opacity="1"></stop><stop offset="80%" stop-color="#005c91" stop-opacity="1"></stop></linearGradient></defs><g transform="translate(900, 600)"><path d="M-243.4 0C-245.2 -22.2 -247.1 -44.3 -235.1 -63C-223 -81.6 -197.1 -96.8 -169.7 -98C-142.4 -99.2 -113.6 -86.5 -107.5 -107.5C-101.3 -128.5 -117.8 -183.3 -107.5 -186.2C-97.2 -189.1 -60.2 -140.1 -37.8 -141C-15.4 -141.9 -7.7 -192.6 0 -243.4L0 0Z" fill="#FFCD17"></path></g><g transform="translate(0, 0)"><path d="M243.4 0C194.5 8.7 145.6 17.5 146.8 39.3C148.1 61.2 199.5 96.2 210.8 121.7C222 147.2 193.1 163.2 166.2 166.2C139.3 169.2 114.4 159.3 99 171.5C83.6 183.7 77.6 218.1 62.6 233.8C47.7 249.4 23.9 246.4 0 243.4L0 0Z" fill="#FFCD17"></path></g></svg>