<svg id="visual" viewBox="0 0 900 600" width="900" height="600" xmlns="http://www.w3.org/2000/svg" xmlns:xlink="http://www.w3.org/1999/xlink" version="1.1"><path d="M0 148L21.5 136.5C43 125 86 102 128.8 82.8C171.7 63.7 214.3 48.3 257.2 65.2C300 82 343 131 385.8 141.5C428.7 152 471.3 124 514.2 107.3C557 90.7 600 85.3 642.8 82.3C685.7 79.3 728.3 78.7 771.2 94.2C814 109.7 857 141.3 878.5 157.2L900 173L900 0L878.5 0C857 0 814 0 771.2 0C728.3 0 685.7 0 642.8 0C600 0 557 0 514.2 0C471.3 0 428.7 0 385.8 0C343 0 300 0 257.2 0C214.3 0 171.7 0 128.8 0C86 0 43 0 21.5 0L0 0Z" fill="#ffcd17" stroke-linecap="round" stroke-linejoin="miter"></path></svg>