<svg id="visual" viewBox="0 0 900 600" width="900" height="600" xmlns="http://www.w3.org/2000/svg" xmlns:xlink="http://www.w3.org/1999/xlink" version="1.1"><path d="M0 258L10 277.8C20 297.7 40 337.3 60 336.2C80 335 100 293 120 273.7C140 254.3 160 257.7 180 246.7C200 235.7 220 210.3 240 231.5C260 252.7 280 320.3 300 349.5C320 378.7 340 369.3 360 374.3C380 379.3 400 398.7 420 407.8C440 417 460 416 480 377.7C500 339.3 520 263.7 540 229.7C560 195.7 580 203.3 600 205.2C620 207 640 203 660 223.3C680 243.7 700 288.3 720 291C740 293.7 760 254.3 780 262.5C800 270.7 820 326.3 840 354.5C860 382.7 880 383.3 890 383.7L900 384" fill="none" stroke-linecap="round" stroke-linejoin="miter" stroke="#ffcd17" stroke-width="40"></path></svg>